<?xml version="1.0" encoding="iso-8859-1"?>
<svg fill="#33d17a" height="200px" width="200px" version="1.1" id="Capa_1" xmlns="http://www.w3.org/2000/svg" xmlns:xlink="http://www.w3.org/1999/xlink" viewBox="0 0 489 489" xml:space="preserve" style="--darkreader-inline-fill: #25a470;" data-darkreader-inline-fill=""><g id="SVGRepo_bgCarrier" stroke-width="0"></g><g id="SVGRepo_tracerCarrier" stroke-linecap="round" stroke-linejoin="round"></g><g id="SVGRepo_iconCarrier"> <g> <g> <path d="M397.4,68.7c-8.3-7.3-20.8-6.2-28.1,3.1c-7.3,8.3-6.2,20.8,3.1,28.1c47.9,37.5,75.9,92.6,75.9,151.9 c0,108.2-91.5,195.6-203.9,195.6S40.6,360,40.6,251.8c0-59.3,28.1-114.4,75.9-151.9c8.3-6.2,10.4-18.7,3.1-28.1 c-6.2-8.3-18.7-10.4-28.1-3.1C33.2,113.4,0,181.1,0,252.8C0,382.8,109.2,489,244.5,489S489,382.9,489,252.8 C489,181,455.7,113.4,397.4,68.7z"></path> <path d="M244.5,253.9c11.4,0,20.8-9.4,20.8-20.8V20.8c0-11.4-9.4-20.8-20.8-20.8s-20.8,9.4-20.8,20.8V233 C223.7,244.5,233.1,253.9,244.5,253.9z"></path> </g> </g> </g></svg>